<?xml version="1.0" encoding="iso-8859-1"?>
<!-- Generator: Adobe Illustrator 16.0.0, SVG Export Plug-In . SVG Version: 6.00 Build 0)  -->
<!DOCTYPE svg PUBLIC "-//W3C//DTD SVG 1.1//EN" "http://www.w3.org/Graphics/SVG/1.1/DTD/svg11.dtd">
<svg version="1.1" xmlns="http://www.w3.org/2000/svg" xmlns:xlink="http://www.w3.org/1999/xlink" x="0px" y="0px"
	 width="52.029px" height="57.692px" viewBox="0 0 52.029 57.692" style="enable-background:new 0 0 52.029 57.692;"
	 xml:space="preserve">
<g id="_x30_8_x5F_running">
	<g>
		<g>
			<path style="fill:#44444D;" d="M27.721,53.451c-0.083,0-0.167-0.006-0.252-0.018c-1.01-0.138-1.717-1.068-1.579-2.078
				l0.585-4.279c0.058-0.422,0.26-0.811,0.571-1.101c2.874-2.677,6.102-5.835,7.787-7.667c-2.667-0.971-7.843-2.641-12.575-4.086
				c-0.976-0.299-1.524-1.33-1.227-2.306s1.329-1.524,2.305-1.226c15.058,4.6,15.448,5.209,15.861,5.855
				c0.857,1.339,1.256,1.961-9.153,11.682l-0.496,3.627C29.421,52.78,28.63,53.451,27.721,53.451z"/>
		</g>
		<g>
			<path style="fill:#44444D;" d="M22.159,34.369c-1.103,0-2.169-0.359-3.061-1.041c-1.072-0.819-1.762-2.008-1.94-3.347
				c-0.179-1.339,0.175-2.667,0.996-3.74l8.682-11.359c1.669-2.186,4.777-2.666,7.077-1.094c1.642,1.122,3.06,3.403,4.432,5.61
				c0.81,1.304,2.128,3.424,2.852,3.945c1.314-0.629,4.896-3.967,7.635-6.916c0.694-0.747,1.863-0.789,2.608-0.096
				c0.747,0.694,0.791,1.862,0.097,2.609c-5.026,5.413-8.513,8.157-10.361,8.157c-2.393,0-4.049-2.665-5.966-5.75
				c-1.115-1.794-2.38-3.828-3.38-4.511c-0.676-0.463-1.581-0.337-2.06,0.288l-8.683,11.36c-0.222,0.29-0.316,0.647-0.269,1.008
				s0.234,0.681,0.523,0.902c0.29,0.223,0.644,0.319,1.008,0.27c0.36-0.049,0.682-0.234,0.902-0.523l6.857-8.972
				c0.619-0.811,1.778-0.963,2.588-0.346c0.81,0.619,0.965,1.778,0.346,2.588l-6.857,8.972c-0.82,1.072-2.009,1.762-3.347,1.94
				C22.611,34.354,22.385,34.369,22.159,34.369z"/>
		</g>
		<g>
			<path style="fill:#44444D;" d="M38.988,14.069c-3.878,0-7.033-3.155-7.033-7.033C31.955,3.157,35.11,0,38.988,0
				c2.679,0.001,5.164,1.558,6.331,3.967c0.444,0.917,0.062,2.021-0.855,2.466c-0.918,0.445-2.021,0.063-2.467-0.856
				c-0.563-1.162-1.717-1.884-3.01-1.885c-1.842,0-3.341,1.5-3.341,3.344c0,1.842,1.499,3.34,3.342,3.34
				c1.346,0,2.555-0.801,3.079-2.042c0.397-0.938,1.48-1.378,2.419-0.982c0.939,0.397,1.379,1.48,0.981,2.419
				C44.365,12.383,41.821,14.069,38.988,14.069z"/>
		</g>
		<g>
			<path style="fill:#44444D;" d="M4.646,57.692c-2.375,0-3.513-1.014-4.048-1.864c-1.253-1.987-0.187-4.449,0.04-4.923
				c0.076-0.161,0.176-0.31,0.295-0.44l17.917-19.84c0.682-0.756,1.848-0.818,2.607-0.133c0.757,0.684,0.816,1.85,0.133,2.607
				L3.884,52.706c-0.168,0.464-0.233,0.997-0.16,1.157h0.001C3.739,53.863,3.97,54,4.646,54c1.02,0,1.846,0.826,1.846,1.846
				S5.666,57.692,4.646,57.692z"/>
		</g>
		<g>
			<path style="fill:#44444D;" d="M8.176,25.727c-0.433,0-0.867-0.151-1.218-0.46c-0.766-0.673-0.841-1.839-0.168-2.605
				c8.604-9.787,10.316-9.787,11.048-9.787h13.339c1.02,0,1.846,0.827,1.846,1.846s-0.826,1.846-1.846,1.846H18.105
				c-1.251,0.711-5.343,4.892-8.542,8.532C9.198,25.514,8.688,25.727,8.176,25.727z"/>
		</g>
	</g>
</g>
<g id="Layer_1">
</g>
</svg>
