<?xml version="1.0" encoding="iso-8859-1"?>
<!-- Generator: Adobe Illustrator 16.0.0, SVG Export Plug-In . SVG Version: 6.00 Build 0)  -->
<!DOCTYPE svg PUBLIC "-//W3C//DTD SVG 1.1//EN" "http://www.w3.org/Graphics/SVG/1.1/DTD/svg11.dtd">
<svg version="1.1" xmlns="http://www.w3.org/2000/svg" xmlns:xlink="http://www.w3.org/1999/xlink" x="0px" y="0px"
	 width="57.692px" height="31.439px" viewBox="0 0 57.692 31.439" style="enable-background:new 0 0 57.692 31.439;"
	 xml:space="preserve">
<g id="_x30_9_x5F_dog">
	<g>
		<g>
			<path style="fill:#44444D;" d="M9.055,31.439H1.846c-0.675,0-1.296-0.369-1.62-0.961s-0.298-1.314,0.066-1.883l16.846-26.25
				c0.55-0.858,1.692-1.108,2.551-0.557c0.858,0.551,1.107,1.693,0.557,2.551L5.225,27.747h3.831c1.02,0,1.846,0.827,1.846,1.847
				S10.075,31.439,9.055,31.439z"/>
		</g>
		<g>
			<path style="fill:#44444D;" d="M55.846,31.439h-5.361c-0.489,0-0.959-0.195-1.305-0.541L22.369,4.089
				c-0.531-0.531-1.396-0.53-1.928,0c-0.531,0.531-0.531,1.396,0,1.927l7.646,7.645c0.383,0.382,0.956,0.503,1.458,0.307
				c0.951-0.372,2.02,0.099,2.39,1.049c0.371,0.95-0.099,2.02-1.049,2.391c-1.867,0.728-3.991,0.281-5.41-1.135l-7.647-7.646
				c-0.956-0.956-1.481-2.225-1.481-3.575s0.526-2.619,1.481-3.574c1.972-1.971,5.179-1.971,7.148,0l26.27,26.269h4.597
				c1.02,0,1.847,0.827,1.847,1.847S56.865,31.439,55.846,31.439z"/>
		</g>
		<g>
			<path style="fill:#44444D;" d="M36.818,29.718c-1.801,0-3.602-0.686-4.972-2.057c-2.744-2.743-2.745-7.207-0.002-9.949
				c0.721-0.722,1.89-0.722,2.61,0c0.721,0.721,0.721,1.89,0,2.61c-1.303,1.303-1.302,3.424,0.002,4.729
				c1.303,1.303,3.422,1.301,4.726-0.001c0.95-0.952,1.238-2.374,0.732-3.622c-0.383-0.945,0.073-2.021,1.018-2.404
				c0.945-0.383,2.022,0.073,2.404,1.018c1.063,2.626,0.458,5.616-1.544,7.619C40.422,29.031,38.62,29.717,36.818,29.718z"/>
		</g>
	</g>
</g>
<g id="Layer_1">
</g>
</svg>
