<?xml version="1.0" encoding="iso-8859-1"?>
<!-- Generator: Adobe Illustrator 16.0.0, SVG Export Plug-In . SVG Version: 6.00 Build 0)  -->
<!DOCTYPE svg PUBLIC "-//W3C//DTD SVG 1.1//EN" "http://www.w3.org/Graphics/SVG/1.1/DTD/svg11.dtd">
<svg version="1.1" xmlns="http://www.w3.org/2000/svg" xmlns:xlink="http://www.w3.org/1999/xlink" x="0px" y="0px"
	 width="39.757px" height="57.691px" viewBox="0 0 39.757 57.691" style="enable-background:new 0 0 39.757 57.691;"
	 xml:space="preserve">
<g id="_x31_8_x5F_dumbbell">
	<g>
		<g>
			<path style="fill:#44444D;" d="M22.336,42.758c-2.787,0-5.055-2.268-5.055-5.056v-9.771c0-2.684,2.173-4.708,5.055-4.708
				c1.02,0,1.847,0.827,1.847,1.846s-0.827,1.846-1.847,1.846c-0.319,0-1.362,0.073-1.362,1.015v9.771
				c0,0.751,0.611,1.362,1.362,1.362c0.752,0,1.363-0.611,1.363-1.362V30.82c0-1.02,0.826-1.846,1.846-1.846
				s1.847,0.827,1.847,1.846v6.882C27.392,40.49,25.124,42.758,22.336,42.758z"/>
		</g>
		<g>
			<path style="fill:#44444D;" d="M22.336,21.798c-3.878,0-7.033-3.155-7.033-7.034c0-3.879,3.155-7.036,7.033-7.036
				c2.678,0,5.162,1.556,6.331,3.965c0.445,0.917,0.063,2.022-0.854,2.467s-2.022,0.063-2.467-0.854
				c-0.564-1.163-1.717-1.885-3.01-1.885c-1.842,0-3.341,1.5-3.341,3.343c0,1.842,1.499,3.341,3.341,3.341
				c1.346,0,2.555-0.802,3.079-2.042c0.397-0.939,1.479-1.378,2.419-0.982c0.939,0.397,1.379,1.48,0.982,2.419
				C27.713,20.111,25.17,21.798,22.336,21.798z"/>
		</g>
		<g>
			<path style="fill:#44444D;" d="M19.127,57.691c-1.02,0-1.846-0.826-1.846-1.846V37.702c0-1.02,0.827-1.847,1.846-1.847
				s1.846,0.827,1.846,1.847v18.144C20.974,56.865,20.147,57.691,19.127,57.691z"/>
		</g>
		<g>
			<path style="fill:#44444D;" d="M25.545,57.691c-1.02,0-1.846-0.826-1.846-1.846V37.702c0-1.02,0.826-1.847,1.846-1.847
				s1.847,0.827,1.847,1.847v18.144C27.392,56.865,26.564,57.691,25.545,57.691z"/>
		</g>
		<g>
			<path style="fill:#44444D;" d="M7.229,7.659H1.846C0.827,7.659,0,6.832,0,5.813s0.827-1.846,1.846-1.846h5.383
				c1.02,0,1.846,0.827,1.846,1.846S8.249,7.659,7.229,7.659z"/>
		</g>
		<g>
			<path style="fill:#44444D;" d="M1.846,11.628C0.827,11.628,0,10.802,0,9.782V1.846C0,0.826,0.827,0,1.846,0
				s1.846,0.827,1.846,1.846v7.937C3.692,10.802,2.866,11.628,1.846,11.628z"/>
		</g>
		<g>
			<path style="fill:#44444D;" d="M37.91,37.846c-0.738,0-1.436-0.447-1.721-1.176c-0.16-0.406-3.956-9.754-13.854-9.754
				c-4.471,0-8.18-1.492-11.024-4.435C5.04,15.991,5.348,4.745,5.364,4.269C5.399,3.25,6.25,2.47,7.272,2.487
				c1.019,0.035,1.817,0.889,1.782,1.908c-0.003,0.099-0.263,10.178,4.921,15.529c2.15,2.22,4.885,3.299,8.36,3.299
				c12.465,0,17.104,11.615,17.295,12.109c0.369,0.951-0.104,2.021-1.055,2.389C38.357,37.806,38.132,37.846,37.91,37.846z"/>
		</g>
		<g>
			<path style="fill:#44444D;" d="M12.59,11.628c-1.02,0-1.846-0.827-1.846-1.846V1.846C10.744,0.826,11.571,0,12.59,0
				s1.846,0.827,1.846,1.846v7.937C14.437,10.802,13.61,11.628,12.59,11.628z"/>
		</g>
	</g>
</g>
<g id="Layer_1">
</g>
</svg>
