<?xml version="1.0" encoding="iso-8859-1"?>
<!-- Generator: Adobe Illustrator 16.0.0, SVG Export Plug-In . SVG Version: 6.00 Build 0)  -->
<!DOCTYPE svg PUBLIC "-//W3C//DTD SVG 1.1//EN" "http://www.w3.org/Graphics/SVG/1.1/DTD/svg11.dtd">
<svg version="1.1" xmlns="http://www.w3.org/2000/svg" xmlns:xlink="http://www.w3.org/1999/xlink" x="0px" y="0px"
	 width="57.693px" height="41.203px" viewBox="0 0 57.693 41.203" style="enable-background:new 0 0 57.693 41.203;"
	 xml:space="preserve">
<g id="_x32_6_x5F_swimming">
	<g>
		<g>
			<path style="fill:#44444D;" d="M50.169,25.282c-2.827,0-4.799-1.084-6.512-2.025c-1.393-0.766-2.491-1.37-3.9-1.37
				c-2.269,0-3.58,0.715-5.1,1.543c-1.514,0.824-3.229,1.758-5.762,1.758c-2.534,0-4.249-0.935-5.762-1.759
				c-1.518-0.827-2.829-1.542-5.097-1.542c-1.42,0-2.533,0.598-3.942,1.354c-2.8,1.503-6.285,3.371-12.977,0.497
				c-0.937-0.402-1.37-1.488-0.968-2.425c0.402-0.937,1.489-1.368,2.425-0.968c5.059,2.173,7.244,1,9.774-0.358
				c1.566-0.84,3.34-1.791,5.688-1.791c3.208,0,5.235,1.104,6.863,1.991c1.342,0.731,2.402,1.31,3.995,1.31
				c1.593,0,2.653-0.578,3.996-1.31c1.629-0.887,3.656-1.991,6.865-1.991c2.356,0,4.122,0.97,5.679,1.826
				c2.489,1.368,4.64,2.55,9.664,0.326c0.933-0.416,2.022,0.009,2.436,0.939c0.412,0.933-0.009,2.023-0.94,2.436
				C54.024,24.861,51.93,25.282,50.169,25.282z"/>
		</g>
		<g>
			<path style="fill:#44444D;" d="M50.169,33.29c-2.827,0-4.799-1.084-6.512-2.025c-1.393-0.766-2.491-1.37-3.9-1.37
				c-2.269,0-3.58,0.715-5.1,1.543c-1.514,0.824-3.229,1.758-5.762,1.758c-2.534,0-4.249-0.935-5.762-1.759
				c-1.518-0.827-2.829-1.542-5.097-1.542c-1.42,0-2.533,0.598-3.942,1.354c-2.8,1.503-6.285,3.37-12.977,0.497
				c-0.937-0.402-1.37-1.488-0.968-2.425c0.402-0.937,1.489-1.368,2.425-0.968c5.059,2.173,7.244,1,9.774-0.358
				c1.566-0.84,3.34-1.791,5.688-1.791c3.208,0,5.235,1.104,6.863,1.991c1.342,0.731,2.402,1.31,3.995,1.31
				c1.593,0,2.653-0.578,3.996-1.31c1.629-0.887,3.656-1.991,6.865-1.991c2.356,0,4.122,0.97,5.679,1.826
				c2.489,1.368,4.64,2.55,9.664,0.326c0.933-0.417,2.022,0.008,2.436,0.939c0.412,0.933-0.009,2.023-0.94,2.436
				C54.024,32.869,51.93,33.29,50.169,33.29z"/>
		</g>
		<g>
			<path style="fill:#44444D;" d="M28.896,41.203c-2.533,0-4.248-0.934-5.762-1.758c-1.519-0.828-2.831-1.543-5.1-1.543
				c-1.409,0-2.508,0.605-3.9,1.37c-1.052,0.579-2.245,1.235-3.685,1.637c-0.982,0.271-2-0.3-2.274-1.282
				c-0.274-0.982,0.3-2,1.282-2.274c1.027-0.286,1.936-0.786,2.897-1.315c1.557-0.855,3.322-1.826,5.679-1.826
				c3.209,0,5.237,1.104,6.866,1.991c1.343,0.731,2.403,1.31,3.996,1.31s2.653-0.578,3.996-1.31
				c1.629-0.887,3.656-1.991,6.865-1.991c2.357,0,4.122,0.971,5.68,1.826c0.962,0.529,1.87,1.029,2.897,1.315
				c0.981,0.274,1.556,1.292,1.282,2.274c-0.274,0.982-1.293,1.554-2.274,1.282c-1.439-0.401-2.633-1.058-3.685-1.637
				c-1.392-0.765-2.491-1.37-3.9-1.37c-2.269,0-3.58,0.715-5.1,1.543C33.144,40.27,31.429,41.203,28.896,41.203z"/>
		</g>
		<g>
			<path style="fill:#44444D;" d="M42.773,14.072c-0.359,0-0.722-0.027-1.084-0.084c-1.856-0.287-3.49-1.279-4.601-2.796
				c-1.109-1.517-1.563-3.374-1.275-5.23c0.287-1.857,1.28-3.491,2.796-4.602c1.517-1.109,3.376-1.563,5.229-1.275
				c2.646,0.41,4.864,2.328,5.651,4.888c0.3,0.975-0.247,2.008-1.222,2.308c-0.977,0.299-2.008-0.247-2.308-1.222
				c-0.38-1.236-1.409-2.127-2.687-2.325c-0.88-0.133-1.763,0.079-2.483,0.606s-1.192,1.304-1.328,2.187
				c-0.137,0.882,0.078,1.765,0.605,2.485c0.527,0.72,1.304,1.191,2.186,1.328c1.332,0.203,2.647-0.401,3.355-1.548
				c0.535-0.866,1.673-1.136,2.54-0.6c0.868,0.536,1.137,1.673,0.601,2.541C47.453,12.832,45.186,14.072,42.773,14.072z"/>
		</g>
		<g>
			<path style="fill:#44444D;" d="M34.474,17.653c-0.395,0-0.792-0.125-1.128-0.385c-0.807-0.624-0.955-1.783-0.331-2.59
				c0.049-0.077,0.288-0.506,0.013-1.053c-0.192-0.385-0.482-0.662-0.794-0.763c-0.26-0.084-0.541-0.048-0.839,0.108l-8.261,4.302
				c-0.905,0.471-2.019,0.118-2.49-0.785c-0.471-0.904-0.12-2.019,0.785-2.49l8.26-4.302c1.173-0.61,2.482-0.733,3.68-0.347
				c1.265,0.409,2.315,1.34,2.958,2.619c1.072,2.134,0.259,4.127-0.392,4.968C35.571,17.407,35.025,17.653,34.474,17.653z"/>
		</g>
		<g>
			<path style="fill:#44444D;" d="M34.117,13.84c-0.538,0-1.07-0.233-1.436-0.684c-3.129-3.86-6.66-7.38-7.799-7.782
				c-1.4,0.143-8.144,3.207-13.64,6.007c-0.909,0.46-2.02,0.101-2.483-0.808C8.296,9.664,8.658,8.553,9.566,8.09
				c4.815-2.451,13.247-6.526,15.58-6.405c2.6,0.154,7.093,5.06,10.404,9.147c0.642,0.792,0.52,1.955-0.272,2.597
				C34.937,13.705,34.525,13.84,34.117,13.84z"/>
		</g>
	</g>
</g>
<g id="Layer_1">
</g>
</svg>
