<?xml version="1.0" encoding="iso-8859-1"?>
<!-- Generator: Adobe Illustrator 16.0.0, SVG Export Plug-In . SVG Version: 6.00 Build 0)  -->
<!DOCTYPE svg PUBLIC "-//W3C//DTD SVG 1.1//EN" "http://www.w3.org/Graphics/SVG/1.1/DTD/svg11.dtd">
<svg version="1.1" xmlns="http://www.w3.org/2000/svg" xmlns:xlink="http://www.w3.org/1999/xlink" x="0px" y="0px"
	 width="57.693px" height="56.134px" viewBox="0 0 57.693 56.134" style="enable-background:new 0 0 57.693 56.134;"
	 xml:space="preserve">
<g id="_x33_7_x5F_weight_x5F_loss">
	<g>
		<g>
			<g>
				<path style="fill:#44444D;" d="M5.027,52.201c-0.153,0-0.309-0.02-0.464-0.06c-0.986-0.256-1.58-1.263-1.324-2.25
					c1.088-4.203,3.123-8.185,5.092-12.034c3.388-6.627,6.589-12.887,5.363-20.191c-0.445-2.649-2.036-5.061-3.721-7.614
					C8.404,7.673,6.781,5.214,5.962,2.354c-0.281-0.98,0.285-2.002,1.266-2.283c0.979-0.279,2.002,0.285,2.283,1.266
					c0.664,2.315,2.063,4.437,3.545,6.682c1.821,2.762,3.705,5.617,4.279,9.036c1.428,8.509-2.204,15.613-5.717,22.483
					C9.654,43.379,7.8,47.007,6.813,50.817C6.599,51.649,5.849,52.201,5.027,52.201z"/>
			</g>
			<g>
				<path style="fill:#44444D;" d="M52.661,52.201c-0.821,0-1.571-0.552-1.786-1.384c-0.986-3.811-2.841-7.438-4.805-11.279
					c-3.512-6.87-7.144-13.975-5.714-22.483c0.572-3.419,2.456-6.275,4.277-9.037c1.48-2.245,2.879-4.365,3.543-6.681
					c0.28-0.979,1.307-1.545,2.283-1.266c0.979,0.28,1.547,1.303,1.266,2.283c-0.819,2.858-2.44,5.317-4.01,7.696
					c-1.684,2.553-3.274,4.965-3.719,7.614c-1.227,7.306,1.974,13.565,5.361,20.192c1.968,3.85,4.003,7.831,5.091,12.034
					c0.256,0.987-0.338,1.995-1.324,2.25C52.97,52.182,52.813,52.201,52.661,52.201z"/>
			</g>
			<g>
				<g>
					<path style="fill:#44444D;" d="M53.532,13.676c-0.289,0-0.582-0.068-0.855-0.212c-0.903-0.474-1.251-1.59-0.777-2.492
						c0.382-0.728,0.651-1.369,0.823-1.961c0.284-0.98,1.309-1.547,2.287-1.258c0.979,0.284,1.543,1.309,1.258,2.287
						c-0.241,0.832-0.601,1.697-1.099,2.646C54.839,13.315,54.197,13.676,53.532,13.676z"/>
				</g>
				<g>
					<path style="fill:#44444D;" d="M52.454,35.086c-0.685,0-1.343-0.383-1.662-1.04c-0.721-1.485-1.543-3.217-2.187-4.978
						c-0.35-0.957,0.144-2.018,1.102-2.367c0.958-0.349,2.018,0.144,2.367,1.102c0.583,1.597,1.358,3.228,2.04,4.63
						c0.445,0.918,0.063,2.022-0.854,2.468C53,35.026,52.725,35.086,52.454,35.086z M49.121,24.131c-1.02,0-1.846-0.822-1.846-1.842
						c0-1.037,0.104-2.067,0.31-3.069c0.179-0.875,0.53-1.807,1.073-2.845c0.473-0.902,1.587-1.251,2.492-0.779
						c0.903,0.473,1.252,1.589,0.779,2.492c-0.381,0.727-0.618,1.339-0.728,1.872c-0.156,0.761-0.235,1.541-0.235,2.32
						C50.967,23.3,50.141,24.131,49.121,24.131z"/>
				</g>
				<g>
					<path style="fill:#44444D;" d="M55.846,43.203c-0.819,0-1.567-0.549-1.785-1.378c-0.181-0.692-0.414-1.407-0.711-2.187
						c-0.363-0.952,0.114-2.02,1.066-2.383c0.953-0.365,2.019,0.113,2.383,1.066c0.346,0.904,0.618,1.744,0.834,2.565
						c0.258,0.986-0.332,1.996-1.317,2.255C56.158,43.184,56,43.203,55.846,43.203z"/>
				</g>
			</g>
			<g>
				<g>
					<path style="fill:#44444D;" d="M4.161,13.676c-0.665,0-1.307-0.36-1.637-0.989c-0.498-0.949-0.857-1.814-1.099-2.646
						C1.141,9.062,1.704,8.037,2.684,7.753C3.658,7.47,4.687,8.03,4.971,9.011c0.172,0.592,0.441,1.233,0.823,1.961
						c0.474,0.902,0.126,2.019-0.777,2.492C4.743,13.607,4.45,13.676,4.161,13.676z"/>
				</g>
				<g>
					<path style="fill:#44444D;" d="M5.238,35.085c-0.271,0-0.547-0.061-0.807-0.187c-0.917-0.446-1.299-1.551-0.853-2.468
						c0.68-1.396,1.454-3.022,2.04-4.628c0.35-0.958,1.408-1.45,2.367-1.102c0.958,0.35,1.451,1.41,1.102,2.367
						c-0.646,1.771-1.469,3.498-2.188,4.978C6.58,34.702,5.922,35.085,5.238,35.085z M8.572,24.132c-1.02,0-1.846-0.823-1.846-1.843
						c0-0.787-0.079-1.567-0.235-2.327c-0.109-0.535-0.347-1.147-0.728-1.874c-0.473-0.903-0.124-2.02,0.779-2.492
						c0.904-0.472,2.019-0.123,2.492,0.779c0.543,1.038,0.895,1.97,1.073,2.847c0.206,1.001,0.31,2.032,0.31,3.062
						C10.418,23.303,9.592,24.132,8.572,24.132z"/>
				</g>
				<g>
					<path style="fill:#44444D;" d="M1.848,43.203c-0.154,0-0.313-0.02-0.47-0.061c-0.985-0.259-1.575-1.269-1.317-2.255
						c0.216-0.821,0.488-1.661,0.834-2.565c0.362-0.953,1.429-1.433,2.383-1.066c0.952,0.363,1.43,1.431,1.066,2.383
						c-0.297,0.779-0.53,1.494-0.711,2.187C3.415,42.654,2.667,43.203,1.848,43.203z"/>
				</g>
			</g>
		</g>
		<g>
			<path style="fill:#44444D;" d="M43.486,15.365c-0.33,0-0.664-0.089-0.966-0.274c-6.43-3.961-15.821-4.735-23.372-1.93
				c-0.957,0.356-2.019-0.131-2.374-1.087s0.132-2.019,1.087-2.374c8.695-3.23,19.132-2.351,26.595,2.246
				c0.868,0.535,1.139,1.672,0.604,2.54C44.711,15.053,44.106,15.365,43.486,15.365z"/>
		</g>
		<g>
			<path style="fill:#44444D;" d="M28.843,40.134c-6.421,0-12.839-0.894-17.958-2.681c-0.963-0.336-1.471-1.389-1.135-2.352
				c0.335-0.964,1.391-1.471,2.352-1.135c9.546,3.333,23.944,3.333,33.49-0.002c0.959-0.336,2.015,0.171,2.352,1.135
				c0.336,0.962-0.172,2.015-1.135,2.352C41.688,39.239,35.265,40.134,28.843,40.134z"/>
		</g>
		<g>
			<path style="fill:#44444D;" d="M28.847,56.134c-4.361,0-8.875-4.404-13.24-8.664c-2.572-2.51-5.231-5.105-6.916-5.695
				c-0.962-0.337-1.469-1.39-1.132-2.353c0.337-0.962,1.387-1.473,2.353-1.132c2.457,0.86,5.152,3.491,8.274,6.537
				c3.477,3.393,7.803,7.615,10.661,7.615s7.188-4.225,10.666-7.618c1.387-1.354,2.696-2.632,3.961-3.724
				c0.771-0.667,1.938-0.583,2.604,0.189c0.667,0.771,0.582,1.938-0.189,2.604c-1.18,1.02-2.451,2.26-3.797,3.573
				C37.724,51.728,33.208,56.134,28.847,56.134z"/>
		</g>
		<g>
			<path style="fill:#44444D;" d="M28.849,30.171c-0.66,0-1.3-0.271-1.771-0.73c-0.47-0.47-0.729-1.109-0.729-1.77
				s0.26-1.311,0.729-1.771c0.931-0.93,2.61-0.93,3.54,0c0.46,0.46,0.73,1.11,0.73,1.771s-0.271,1.3-0.73,1.77
				C30.148,29.9,29.509,30.171,28.849,30.171z"/>
		</g>
	</g>
</g>
<g id="Layer_1">
</g>
</svg>
