<?xml version="1.0" encoding="iso-8859-1"?>
<!-- Generator: Adobe Illustrator 16.0.0, SVG Export Plug-In . SVG Version: 6.00 Build 0)  -->
<!DOCTYPE svg PUBLIC "-//W3C//DTD SVG 1.1//EN" "http://www.w3.org/Graphics/SVG/1.1/DTD/svg11.dtd">
<svg version="1.1" xmlns="http://www.w3.org/2000/svg" xmlns:xlink="http://www.w3.org/1999/xlink" x="0px" y="0px"
	 width="57.649px" height="57.666px" viewBox="0 0 57.649 57.666" style="enable-background:new 0 0 57.649 57.666;"
	 xml:space="preserve">
<g id="_x33_8_x5F_physical_x5F_fitness">
	<g>
		<g>
			<path style="fill:#44444D;" d="M40.726,57.666c-2.976,0-6.478-0.452-9.601-1.13C24.729,55.149,9.283,50.45,3.994,36.807
				c-0.368-0.95,0.104-2.02,1.055-2.389c0.944-0.368,2.019,0.104,2.389,1.055c3.531,9.111,12.409,13.741,19.235,16.021
				c8.801,2.94,16.489,2.751,17.845,2.02c12.15-13.411,9.452-34.018,8.759-35.94c-0.405-0.926-0.561-2.333-0.739-3.962
				c-0.197-1.789-0.466-4.238-1.126-5.207C50.143,6.664,39.929,2.71,37.285,3.815c-0.781,0.327-1.965,1.849-2.721,4.415
				c-0.723,2.457-0.59,4.254-0.351,4.731c1.219,0.575,6.881,0.385,12.313-0.423c1.014-0.148,1.947,0.547,2.098,1.555
				c0.149,1.009-0.546,1.947-1.555,2.098c-4.703,0.7-12.94,1.575-15.278-0.423c-1.653-1.414-1.609-4.212-1.281-6.31
				c0.567-3.626,2.44-7.83,5.347-9.048c4.38-1.838,16.549,2.901,18.604,5.911c1.18,1.73,1.48,4.469,1.746,6.885
				c0.121,1.104,0.272,2.476,0.466,2.918c0.741,1.692,4.374,24.793-9.533,39.992c-0.023,0.025-0.048,0.05-0.072,0.074
				C45.991,57.243,43.604,57.666,40.726,57.666z"/>
		</g>
		<g>
			<path style="fill:#44444D;" d="M37.543,34.2c-0.353,0-0.709-0.101-1.024-0.312c-0.848-0.566-1.075-1.713-0.51-2.561
				c0.039-0.058,3.865-5.84,5.229-12.194c0.214-0.999,1.203-1.634,2.191-1.418c0.997,0.214,1.632,1.195,1.418,2.191
				c-1.515,7.063-5.596,13.216-5.769,13.475C38.722,33.913,38.138,34.2,37.543,34.2z"/>
		</g>
		<g>
			<path style="fill:#44444D;" d="M41.219,40.941c-0.827,0-1.58-0.561-1.79-1.398c-0.85-3.397-4.439-8.356-9.42-10.857
				c-3.442-1.729-6.811-1.927-10.008-0.593c-0.944,0.391-2.022-0.054-2.415-0.993c-0.393-0.941,0.053-2.022,0.993-2.415
				c4.178-1.743,8.703-1.5,13.087,0.702c6.028,3.026,10.27,8.962,11.345,13.26c0.247,0.989-0.354,1.992-1.343,2.239
				C41.518,40.923,41.366,40.941,41.219,40.941z"/>
		</g>
		<g>
			<path style="fill:#44444D;" d="M23.013,22.606c-0.67,0-1.316-0.366-1.644-1.003c-1.595-3.102-5.875-6.063-11.854-5.702
				c-0.997,0.053-1.894-0.713-1.955-1.73s0.713-1.893,1.73-1.955c8.162-0.499,13.377,3.837,15.362,7.7
				c0.467,0.906,0.109,2.02-0.798,2.485C23.585,22.54,23.296,22.606,23.013,22.606z"/>
		</g>
		<g>
			<path style="fill:#44444D;" d="M1.843,42.055c-0.248,0-0.5-0.051-0.742-0.158c-0.927-0.41-1.352-1.485-0.948-2.415
				c0.101-0.232,2.551-5.712,9.358-6.455c1.014-0.121,1.924,0.622,2.035,1.635c0.111,1.014-0.621,1.925-1.635,2.035
				c-4.624,0.506-6.308,4.113-6.378,4.267C3.225,41.646,2.549,42.055,1.843,42.055z"/>
		</g>
		<g>
			<path style="fill:#44444D;" d="M38.979,16.959c-0.569,0-1.13-0.262-1.491-0.756c-0.603-0.822-0.424-1.978,0.398-2.58
				c1.028-0.753,1.337-1.24,1.423-1.422c-0.118-0.113-0.354-0.252-0.439-0.284c-0.955-0.357-1.438-1.421-1.081-2.376
				s1.426-1.438,2.376-1.081c0.258,0.097,2.53,1.008,2.835,3.223c0.23,1.671-0.756,3.326-2.932,4.919
				C39.739,16.843,39.357,16.959,38.979,16.959z"/>
		</g>
	</g>
</g>
<g id="Layer_1">
</g>
</svg>
