<?xml version="1.0" encoding="iso-8859-1"?>
<!-- Generator: Adobe Illustrator 16.0.0, SVG Export Plug-In . SVG Version: 6.00 Build 0)  -->
<!DOCTYPE svg PUBLIC "-//W3C//DTD SVG 1.1//EN" "http://www.w3.org/Graphics/SVG/1.1/DTD/svg11.dtd">
<svg version="1.1" xmlns="http://www.w3.org/2000/svg" xmlns:xlink="http://www.w3.org/1999/xlink" x="0px" y="0px"
	 width="29.604px" height="57.691px" viewBox="0 0 29.604 57.691" style="enable-background:new 0 0 29.604 57.691;"
	 xml:space="preserve">
<g id="_x34_7_x5F_energy_x5F_drink">
	<g>
		<g>
			<path style="fill:#44444D;" d="M27.758,16.104H1.846C0.826,16.104,0,15.277,0,14.258V10.54c0-3.068,2.622-5.563,5.846-5.563
				h17.912c3.224,0,5.846,2.495,5.846,5.563v3.718C29.604,15.277,28.777,16.104,27.758,16.104z M3.691,12.412h22.221V10.54
				c0-1.015-0.986-1.872-2.154-1.872H5.846c-1.168,0-2.154,0.857-2.154,1.872V12.412z"/>
		</g>
		<g>
			<path style="fill:#44444D;" d="M19.688,29.56H9.914c-1.02,0-1.846-0.826-1.846-1.846s0.826-1.846,1.846-1.846h9.773
				c1.02,0,1.846,0.826,1.846,1.846S20.707,29.56,19.688,29.56z"/>
		</g>
		<g>
			<path style="fill:#44444D;" d="M23.758,57.691H5.846C2.622,57.691,0,55.069,0,51.846V30.566c0-1.02,0.826-1.846,1.846-1.846
				c0.684,0,1.24-0.557,1.24-1.241c0-0.684-0.557-1.24-1.24-1.24C0.826,26.239,0,25.413,0,24.394v-4.606
				c0-1.02,0.826-1.846,1.846-1.846h25.912c1.02,0,1.846,0.826,1.846,1.846s-0.826,1.846-1.846,1.846H3.691v1.273
				c1.808,0.731,3.086,2.506,3.086,4.573s-1.278,3.842-3.086,4.574v19.792C3.691,53.033,4.658,54,5.846,54h17.912
				c1.188,0,2.154-0.967,2.154-2.154V32.054c-1.808-0.732-3.086-2.507-3.086-4.574c0-2.72,2.212-4.932,4.932-4.932
				c1.02,0,1.846,0.826,1.846,1.846s-0.826,1.846-1.846,1.846c-0.684,0-1.24,0.557-1.24,1.24c0,0.685,0.557,1.241,1.24,1.241
				c1.02,0,1.846,0.826,1.846,1.846v21.279C29.604,55.069,26.981,57.691,23.758,57.691z"/>
		</g>
		<g>
			<path style="fill:#44444D;" d="M16.195,3.691h-2.789c-1.02,0-1.846-0.826-1.846-1.846S12.387,0,13.406,0h2.789
				c1.02,0,1.846,0.826,1.846,1.846S17.215,3.691,16.195,3.691z"/>
		</g>
		<g>
			<path style="fill:#44444D;" d="M12.008,49.711c-0.491,0-0.981-0.194-1.345-0.581c-0.699-0.743-0.662-1.911,0.08-2.609
				l3.776-3.549l-3.63-0.849c-0.663-0.155-1.187-0.662-1.363-1.319c-0.176-0.657,0.023-1.358,0.52-1.824l6.286-5.906
				c0.741-0.697,1.911-0.661,2.609,0.082c0.698,0.742,0.661,1.911-0.082,2.609l-3.775,3.547l3.629,0.849
				c0.663,0.155,1.187,0.662,1.363,1.319c0.176,0.657-0.023,1.357-0.519,1.823l-6.285,5.907
				C12.916,49.545,12.462,49.711,12.008,49.711z"/>
		</g>
	</g>
</g>
<g id="Layer_1">
</g>
</svg>
