<?xml version="1.0" encoding="iso-8859-1"?>
<!-- Generator: Adobe Illustrator 16.0.0, SVG Export Plug-In . SVG Version: 6.00 Build 0)  -->
<!DOCTYPE svg PUBLIC "-//W3C//DTD SVG 1.1//EN" "http://www.w3.org/Graphics/SVG/1.1/DTD/svg11.dtd">
<svg version="1.1" xmlns="http://www.w3.org/2000/svg" xmlns:xlink="http://www.w3.org/1999/xlink" x="0px" y="0px"
	 width="57.319px" height="57.713px" viewBox="0 0 57.319 57.713" style="enable-background:new 0 0 57.319 57.713;"
	 xml:space="preserve">
<g id="_x34_9_x5F_healthy_x5F_food">
	<g>
		<g>
			<path style="fill:#44444D;" d="M26.303,16.071c-0.736,0-1.432-0.443-1.718-1.17c-1.583-4.019-1.523-7.402,0.177-10.059
				c2.831-4.421,9.129-4.825,9.396-4.84c0.688-0.04,1.35,0.313,1.698,0.912c2.782,4.767,1.318,9.418-4.014,12.761
				c-0.864,0.541-2.003,0.28-2.544-0.584c-0.542-0.864-0.28-2.003,0.583-2.545c3.966-2.486,4.036-4.872,3.318-6.694
				c-1.512,0.286-4.097,1.047-5.335,2.992c-1.018,1.601-0.966,3.855,0.156,6.703c0.374,0.948-0.092,2.021-1.041,2.395
				C26.757,16.029,26.528,16.071,26.303,16.071z"/>
		</g>
		<g>
			<path style="fill:#44444D;" d="M21.985,57.713C14.65,57.714,7.761,51.31,3.848,44.135c-5.018-9.202-6.112-21.088,2.755-26.899
				c7.786-5.101,16.828-1.074,19.803,0.524c2.974-1.599,12.013-5.628,19.803-0.524c1.79,1.173,3.245,2.667,4.325,4.441
				c0.53,0.871,0.255,2.007-0.616,2.537c-0.871,0.531-2.006,0.254-2.537-0.617c-0.793-1.302-1.868-2.403-3.195-3.273
				c-7.27-4.761-16.698,1.065-16.793,1.124c-0.602,0.379-1.373,0.381-1.975-0.002c-0.091-0.058-9.522-5.88-16.791-1.122
				c-6.899,4.522-5.744,14.33-1.537,22.043c4.169,7.645,11.885,13.832,18.566,10.857c0.478-0.213,1.022-0.213,1.5,0
				c6.618,2.942,13.447-2.857,17.284-8.718c0.559-0.853,1.701-1.094,2.556-0.532c0.854,0.559,1.092,1.702,0.533,2.556
				c-5.887,8.989-14.093,12.987-21.121,10.374C24.93,57.458,23.448,57.713,21.985,57.713z"/>
		</g>
		<g>
			<g>
				<path style="fill:#44444D;" d="M52.474,48.879h-1.854c-1.02,0-1.847-0.826-1.847-1.846s0.827-1.846,1.847-1.846h1.854
					c0.625,0,1.153-0.528,1.153-1.154c0-0.625-0.528-1.154-1.153-1.154H15.589c-1.02,0-1.846-0.826-1.846-1.846V27.375
					c0-1.02,0.827-1.846,1.846-1.846h36.885c2.672,0,4.846,2.174,4.846,4.846v6.98c0,1.02-0.826,1.846-1.846,1.846
					s-1.847-0.826-1.847-1.846v-6.98c0-0.626-0.528-1.154-1.153-1.154H17.435v9.967h35.039c2.672,0,4.846,2.174,4.846,4.846
					S55.146,48.879,52.474,48.879z"/>
			</g>
			<g>
				<path style="fill:#44444D;" d="M21.555,37.059c-1.02,0-1.846-0.826-1.846-1.846v-7.838c0-1.02,0.827-1.846,1.846-1.846
					s1.846,0.826,1.846,1.846v7.838C23.401,36.232,22.574,37.059,21.555,37.059z"/>
			</g>
			<g>
				<path style="fill:#44444D;" d="M42.343,37.059c-1.02,0-1.847-0.826-1.847-1.846v-7.838c0-1.02,0.827-1.846,1.847-1.846
					s1.846,0.826,1.846,1.846v7.838C44.188,36.232,43.362,37.059,42.343,37.059z"/>
			</g>
			<g>
				<path style="fill:#44444D;" d="M26.752,34.063c-1.02,0-1.846-0.826-1.846-1.846v-4.533c0-1.02,0.827-1.846,1.846-1.846
					s1.846,0.826,1.846,1.846v4.533C28.598,33.236,27.771,34.063,26.752,34.063z"/>
			</g>
			<g>
				<path style="fill:#44444D;" d="M31.949,34.063c-1.02,0-1.847-0.826-1.847-1.846v-4.533c0-1.02,0.827-1.846,1.847-1.846
					s1.846,0.826,1.846,1.846v4.533C33.795,33.236,32.969,34.063,31.949,34.063z"/>
			</g>
			<g>
				<path style="fill:#44444D;" d="M37.146,34.063c-1.02,0-1.847-0.826-1.847-1.846v-4.533c0-1.02,0.827-1.846,1.847-1.846
					s1.846,0.826,1.846,1.846v4.533C38.991,33.236,38.165,34.063,37.146,34.063z"/>
			</g>
			<g>
				<path style="fill:#44444D;" d="M47.54,34.063c-1.02,0-1.847-0.826-1.847-1.846v-4.533c0-1.02,0.827-1.846,1.847-1.846
					s1.846,0.826,1.846,1.846v4.533C49.386,33.236,48.56,34.063,47.54,34.063z"/>
			</g>
		</g>
	</g>
</g>
<g id="Layer_1">
</g>
</svg>
